<?xml version="1.0" encoding="utf-8"?>
<!DOCTYPE svg PUBLIC "-//W3C//DTD SVG 1.0//EN" "http://www.w3.org/TR/2001/REC-SVG-20010904/DTD/svg10.dtd">
<svg version="1.0" xmlns="http://www.w3.org/2000/svg" width="815px" height="815px" viewBox="0 0 815 815" preserveAspectRatio="xMidYMid meet">
 <g fill="#000000" fill-rule="evenodd">
  <path d="M0 407.50 L0 0 407.50 0 L815 0 815 407.50 L815 815 407.50 815 L0 815 0 407.50 M486.45 623.35 L486.69 481.12 492.66 477.14 C495.92 474.91 503.64 469.90 509.77 466 C515.90 462.10 524.26 456.69 528.48 453.98 C532.62 451.27 542.25 444.99 549.97 440.05 C563.18 431.54 575.12 423.82 583.79 418.17 C612.13 399.70 644.68 379.01 646.75 378.29 C647.62 377.89 647.86 406.47 647.86 569.31 C647.86 674.68 647.62 760.88 647.30 760.88 C647.07 760.88 643.88 758.41 640.38 755.47 C636.80 752.44 631.55 748.22 628.68 746 C625.81 743.69 621.84 740.11 619.85 737.96 C614.99 732.78 614.19 728.80 614.51 713.05 C614.67 706.52 614.59 701.11 614.27 701.11 C613.96 701.11 607.19 704.61 599.15 708.83 C582.76 717.42 487.25 765.65 486.69 765.65 C486.45 765.65 486.37 701.58 486.45 623.35 M102.03 467.03 L102.27 172.39 137.69 148.59 C157.11 135.46 190.30 113.18 211.31 99.09 C232.32 84.92 254.05 70.28 259.70 66.54 C265.27 62.72 270.21 59.69 270.61 59.69 C271.08 59.69 271.40 134.03 271.40 245.14 C271.40 357.44 271.64 430.58 272.12 430.58 C272.52 430.58 281.19 425.41 291.38 419.20 L310 407.82 310.40 354.49 C310.56 325.20 311.04 300.53 311.44 299.81 C312.87 296.87 316.21 295.99 326.48 296.07 C337.38 296.15 341.28 297.11 342.79 300.05 C343.51 301.57 343.75 311.99 343.75 345.10 L343.75 388.24 353.94 382.03 C359.51 378.69 365.95 374.71 368.26 373.28 L372.48 370.65 372.40 346.45 C372.40 323.37 372.48 322.26 374.07 320.75 C374.95 319.79 376.70 319.08 378.21 319.16 C381.63 319.16 392.54 322.82 395.08 324.81 L397.07 326.40 397.15 341.12 L397.15 355.93 399.22 354.49 C400.42 353.78 408.53 348.84 417.37 343.59 C426.12 338.34 435.28 332.77 437.58 331.25 C439.97 329.74 447.45 325.04 454.30 320.91 C461.14 316.69 468.94 311.91 471.57 310.24 C474.20 308.57 478.57 305.86 481.28 304.27 L486.29 301.25 486.29 241.95 L486.29 182.66 496.40 176.05 C501.97 172.47 517.89 162.04 531.82 152.97 C545.67 143.90 562.30 132.99 568.83 128.86 C586.10 117.63 610.06 102.03 629.71 89.22 C639.19 83.01 647.15 77.92 647.38 77.92 C647.62 77.92 647.86 133.07 647.86 200.41 L647.86 322.90 599.07 355.53 C572.25 373.44 532.77 399.86 511.36 414.27 C489.88 428.59 439.18 462.50 398.75 489.56 C358.23 516.54 317.56 543.84 308.25 550.05 C299.02 556.33 286.92 564.53 281.43 568.19 L271.40 574.96 271.40 638.71 L271.40 702.46 267.18 704.69 C264.88 705.96 256.20 710.98 247.92 715.91 C223.17 730.56 206.77 740.11 187.59 751.17 L169.53 761.67 135.70 761.67 L101.88 761.67 102.03 467.03 "/>
 </g>
 <g fill="#ffffff" fill-rule="evenodd">
  <path d="M486.45 623.35 L486.69 481.12 492.66 477.14 C495.92 474.91 503.64 469.90 509.77 466 C515.90 462.10 524.26 456.69 528.48 453.98 C532.62 451.27 542.25 444.99 549.97 440.05 C563.18 431.54 575.12 423.82 583.79 418.17 C612.13 399.70 644.68 379.01 646.75 378.29 C647.62 377.89 647.86 406.47 647.86 569.31 C647.86 674.68 647.62 760.88 647.30 760.88 C647.07 760.88 643.88 758.41 640.38 755.47 C636.80 752.44 631.55 748.22 628.68 746 C625.81 743.69 621.84 740.11 619.85 737.96 C614.99 732.78 614.19 728.80 614.51 713.05 C614.67 706.52 614.59 701.11 614.27 701.11 C613.96 701.11 607.19 704.61 599.15 708.83 C582.76 717.42 487.25 765.65 486.69 765.65 C486.45 765.65 486.37 701.58 486.45 623.35 "/>
  <path d="M102.03 467.03 L102.27 172.39 137.69 148.59 C157.11 135.46 190.30 113.18 211.31 99.09 C232.32 84.92 254.05 70.28 259.70 66.54 C265.27 62.72 270.21 59.69 270.61 59.69 C271.08 59.69 271.40 134.03 271.40 245.14 C271.40 357.44 271.64 430.58 272.12 430.58 C272.52 430.58 281.19 425.41 291.38 419.20 L310 407.82 310.40 354.49 C310.56 325.20 311.04 300.53 311.44 299.81 C312.87 296.87 316.21 295.99 326.48 296.07 C337.38 296.15 341.28 297.11 342.79 300.05 C343.51 301.57 343.75 311.99 343.75 345.10 L343.75 388.24 353.94 382.03 C359.51 378.69 365.95 374.71 368.26 373.28 L372.48 370.65 372.40 346.45 C372.40 323.37 372.48 322.26 374.07 320.75 C374.95 319.79 376.70 319.08 378.21 319.16 C381.63 319.16 392.54 322.82 395.08 324.81 L397.07 326.40 397.15 341.12 L397.15 355.93 399.22 354.49 C400.42 353.78 408.53 348.84 417.37 343.59 C426.12 338.34 435.28 332.77 437.58 331.25 C439.97 329.74 447.45 325.04 454.30 320.91 C461.14 316.69 468.94 311.91 471.57 310.24 C474.20 308.57 478.57 305.86 481.28 304.27 L486.29 301.25 486.29 241.95 L486.29 182.66 496.40 176.05 C501.97 172.47 517.89 162.04 531.82 152.97 C545.67 143.90 562.30 132.99 568.83 128.86 C586.10 117.63 610.06 102.03 629.71 89.22 C639.19 83.01 647.15 77.92 647.38 77.92 C647.62 77.92 647.86 133.07 647.86 200.41 L647.86 322.90 599.07 355.53 C572.25 373.44 532.77 399.86 511.36 414.27 C489.88 428.59 439.18 462.50 398.75 489.56 C358.23 516.54 317.56 543.84 308.25 550.05 C299.02 556.33 286.92 564.53 281.43 568.19 L271.40 574.96 271.40 638.71 L271.40 702.46 267.18 704.69 C264.88 705.96 256.20 710.98 247.92 715.91 C223.17 730.56 206.77 740.11 187.59 751.17 L169.53 761.67 135.70 761.67 L101.88 761.67 102.03 467.03 "/>
 </g>
</svg>